<?xml version="1.0" encoding="UTF-8"?>
<svg id="Web-icon" xmlns="http://www.w3.org/2000/svg" viewBox="0 0 351.18 271.37">
  <defs>
    <style>
      .cls-1 {
        stroke-width: 4px;
      }

      .cls-1, .cls-2 {
        stroke: #1d1d1b;
        stroke-miterlimit: 10;
      }

      .cls-1, .cls-2, .cls-3 {
        fill: none;
      }

      .cls-2 {
        stroke-width: 5px;
      }

      .cls-4 {
        fill: #1d1d1b;
      }

      .cls-5 {
        fill: #fdc75f;
      }

      .cls-6 {
        fill: #fffffc;
      }

      .cls-7 {
        fill: #005a8f;
      }
    </style>
  </defs>
  <path class="cls-6" d="M312.01,220.02c-19.56,10.46-42.63,23.15-51.95,29.63-.78.53-1.65,1.06-2.59,1.54-4.88,2.56-12.03,4.61-20.1,6.27-9.17-2.9-15.94-13.09-15.94-25.18,0-.41,0-.85.02-1.27-6.26.48-39.79,2.97-45.98,4.24v-21.27s0-3.46,0-3.46v-41.11s.04-.02.06,0v-1.73c11.16.81,26.84,3.09,42.97,9.19,10.36,3.27,21.01,7.83,31,14.21,24.13,15.39,47.68,24.3,62.53,28.93Z"/>
  <path class="cls-7" d="M344.28,203.12s-11.54,5.97-26.27,13.82c-1.82.97-3.67,1.96-5.58,2.99-14.85-4.63-38.39-13.55-62.53-28.93-9.99-6.38-20.63-10.94-31-14.21-16.13-6.1-31.81-8.39-42.97-9.19v-21.31s28.8-2.03,59.14,9.45c10.35,3.27,20.99,7.83,30.98,14.21,3.65,2.33,7.28,4.49,10.87,6.54,15.04,8.52,29.35,14.58,40.89,18.75,15.87,5.74,26.46,7.88,26.46,7.88Z"/>
  <path class="cls-3" d="M312.43,219.94c-19.56,10.46-42.63,23.15-51.95,29.63-.78.53-1.65,1.06-2.59,1.54-4.88,2.56-12.03,4.61-20.1,6.27-9.17-2.9-15.94-13.09-15.94-25.18,0-.41,0-.85.02-1.27-6.26.48-39.79,2.97-45.98,4.24v-65.84s.04-.02.06,0v-1.73c11.16.81,26.84,3.09,42.97,9.19,10.36,3.27,21.01,7.83,31,14.21,24.13,15.39,47.68,24.3,62.53,28.93Z"/>
  <path class="cls-6" d="M237.78,257.37c-10.78,2.21-23.21,3.71-34.08,4.72-.27,0-.53.02-.78.07-12.01,1.08-22.01,1.54-25.61,1.68-.93.05-1.44.07-1.44.07v-28.75c6.18-1.27,39.72-3.75,45.98-4.24-.02.41-.02.85-.02,1.27,0,12.09,6.77,22.28,15.94,25.18Z"/>
  <path class="cls-5" d="M239.62,257.86c-9.68,1.82-23.57,3.23-35.92,4.24-.27,0-.53.02-.78.07-11.74.92-21.96,1.5-25.61,1.68-.93.05-1.44.07-1.44.07v-28.75c6.18-1.27,39.72-3.75,45.98-4.24-.02.41-.02.85-.02,1.27,0,12.09,6.77,22.28,15.94,25.18.61.21,1.21.35,1.83.48Z"/>
  <path class="cls-6" d="M215.54,111.69l-.33,20.96c-17.85-12.9-36.84-13.32-36.84-13.32v-39.17c.11.02.22.02.33.02,5.46,0,10.48-2.28,14.48-6.11,2.35,1.83,5.13,2.89,8.12,2.89,1.36,0,2.67-.22,3.93-.64v30.77c5.94,2.47,10.32,4.6,10.32,4.6Z"/>
  <path class="cls-6" d="M240.01,54.19c0,9.18-8.09,16.93-19.07,19.19-2.12.44-4.33.68-6.63.68-5.05,0-9.74-1.12-13.71-3.06-6.75,4.06-15.23,6.48-24.44,6.48-.18,0-.37,0-.55-.02V15.98c.18-.02.37-.02.55-.02,16.29,0,30.29,7.56,36.44,18.4.55-.02,1.13-.04,1.7-.04,14.19,0,25.71,8.9,25.71,19.86Z"/>
  <line class="cls-1" x1="206.59" y1="73.01" x2="206.8" y2="103.77"/>
  <path class="cls-4" d="M223.11,231.08c.13,6.54,3.01,13.18,7.61,17.81,1.54,1.68,3.43,2.99,5.26,4.32,1.55,1.17,1.86,3.38.69,4.93-1.27,1.71-3.83,1.88-5.31.35-3.82-3.54-7.02-7.84-8.89-12.71-1.87-4.82-2.6-9.86-1.87-15.01.1-.69.75-1.16,1.44-1.06.67.1,1.12.71,1.08,1.36h0Z"/>
  <path class="cls-5" d="M204.7,232.24l-28.82,2.93v-20.92s.04-.14.09-.39c.36-1.38,1.74-6.27,4.5-11.45,3.37-6.27,8.79-12.99,16.96-14.4,16.11-2.76,7.26,44.23,7.26,44.23Z"/>
  <path class="cls-4" d="M205.84,222.56c-.66-3.23-1.1-6.39-1.67-9.5.16-6.06.56-20.38-4.95-23.04-8.5,1.29-14,9.36-17.52,16.62-1.98,2.39-3.89,4.92-5.81,7.59-.04-3.31.46-6.59,1.23-9.84,4.33-8.42,10.78-17.57,20.85-19.23.57-.11,1.32-.21,1.93-.08,10.03,2.3,9.58,20.23,9.19,28.23-.9,3.16-1.9,6.25-3.24,9.25h0Z"/>
  <path class="cls-4" d="M180.48,202.4c-2.76,5.18-4.14,10.07-4.5,11.45v-38.29l3.12,5.11,1.38,21.72Z"/>
  <path class="cls-4" d="M184.87,196.16c0-3.04.64-5.7,1.02-8.51.36-2.81.59-4.64-1.13-7.29,1.79-.09,3.5,1.12,4.31,2.71,2.25,4.69-.08,10.38-4.21,13.09h0Z"/>
  <path class="cls-4" d="M215.03,201.83c1.48-6.34,8.68-10.78,15.28-10.17,5.62.28,11.3,3.28,15.62,5.38,1.36.64,2.58,1.14,4.03,1.4,1.45.28,3.16.13,5.25-.34-1.03,4.46-6.37,6.95-10.67,6.68-5.51-.07-10.53-2.35-15.5-3.73-4.73-1.29-8.4-.72-14,.78h0Z"/>
  <path class="cls-7" d="M7.5,203.12s11.54,5.97,26.27,13.82c1.82.97,3.67,1.96,5.58,2.99,14.85-4.63,38.39-13.55,62.53-28.93,9.99-6.38,20.63-10.94,31-14.21,16.13-6.1,31.81-8.39,42.97-9.19v-21.31s-28.8-2.03-59.14,9.45c-10.35,3.27-20.99,7.83-30.98,14.21-3.65,2.33-7.28,4.49-10.87,6.54-15.04,8.52-29.35,14.58-40.89,18.75-15.87,5.74-26.46,7.88-26.46,7.88Z"/>
  <rect class="cls-7" x="175.48" y="149.65" width=".45" height="17.95"/>
  <path class="cls-6" d="M39.18,219.94c19.56,10.46,42.63,23.15,51.95,29.63.78.53,1.65,1.06,2.59,1.54,4.88,2.56,12.03,4.61,20.1,6.27,9.17-2.9,15.94-13.09,15.94-25.18,0-.41,0-.85-.02-1.27,6.26.48,39.79,2.97,45.98,4.24v-21.27s0-3.46,0-3.46v-41.11s-.04-.02-.06,0v-1.73c-11.16.81-26.84,3.09-42.97,9.19-10.36,3.27-21.01,7.83-31,14.21-24.13,15.39-47.68,24.3-62.53,28.93Z"/>
  <path class="cls-6" d="M113.83,257.37c10.78,2.21,23.21,3.71,34.08,4.72.27,0,.53.02.78.07,12.01,1.08,22.01,1.54,25.61,1.68.93.05,1.44.07,1.44.07v-28.75c-6.18-1.27-39.72-3.75-45.98-4.24.02.41.02.85.02,1.27,0,12.09-6.77,22.28-15.94,25.18Z"/>
  <path class="cls-5" d="M111.99,257.86c9.68,1.82,23.57,3.23,35.92,4.24.27,0,.53.02.78.07,11.74.92,21.96,1.5,25.61,1.68.93.05,1.44.07,1.44.07v-28.75c-6.18-1.27-39.72-3.75-45.98-4.24.02.41.02.85.02,1.27,0,12.09-6.77,22.28-15.94,25.18-.61.21-1.21.35-1.83.48Z"/>
  <path class="cls-5" d="M112.14,257.88c9.68,1.82,23.57,3.23,35.92,4.24.27,0,.53.02.78.07,11.74.92,21.96,1.5,25.61,1.68.93.05,1.44.07,1.44.07v-28.75c-6.18-1.27-39.72-3.75-45.98-4.24.02.41.02.85.02,1.27,0,12.09-6.77,22.28-15.94,25.18-.61.21-1.21.35-1.83.48Z"/>
  <path class="cls-2" d="M175.8,146.29h-.13s-59.41-.67-88.54,22.55c-29.13,23.22-79.01,34.28-79.01,34.28l31.04,16.82s51.96,29.35,54.15,31.01,24.36,11.57,82.48,12.97c58.12-1.4,80.28-11.31,82.48-12.97s54.15-31.01,54.15-31.01l31.04-16.82s-49.88-11.06-79.01-34.28c-29.13-23.22-88.54-22.55-88.54-22.55,0,0-.06,0-.13,0Z"/>
  <g>
    <circle class="cls-4" cx="111.63" cy="163.73" r="25.31"/>
    <circle class="cls-6" cx="122.72" cy="159.08" r="6.17"/>
  </g>
  <path class="cls-6" d="M135.16,111.69l.33,20.96c17.85-12.9,36.84-13.32,36.84-13.32v-39.17c-.11.02-.22.02-.33.02-5.46,0-10.48-2.28-14.48-6.11-2.35,1.83-5.13,2.89-8.12,2.89-1.36,0-2.67-.22-3.93-.64v30.77c-5.94,2.47-10.32,4.6-10.32,4.6Z"/>
  <path class="cls-1" d="M175.49,97.29c-13.84-.8-43.51,12.5-43.51,12.5l.38,22.21c13.36-12.17,42.94-14.12,43.04-14.12,0,0,29.58,1.95,42.94,14.12l.38-22.21s-29.68-13.3-43.51-12.5"/>
  <path class="cls-6" d="M111,54.19c0,9.18,8.09,16.93,19.07,19.19,2.12.44,4.33.68,6.63.68,5.05,0,9.74-1.12,13.71-3.06,6.75,4.06,15.23,6.48,24.44,6.48.18,0,.37,0,.55-.02V15.98c-.18-.02-.37-.02-.55-.02-16.29,0-30.29,7.56-36.44,18.4-.55-.02-1.13-.04-1.7-.04-14.19,0-25.71,8.9-25.71,19.86Z"/>
  <path class="cls-1" d="M175.5,77.46c-3.32-.03-8.22-.37-13.77-1.87-4.98-1.34-8.76-3.15-11.31-4.59-1.11.53-11.51,5.25-23.31,1.55-.77-.24-13.15-4.32-15.55-14.58-1.89-8.08,3.78-14.14,5.18-15.54,7.88-7.88,20.14-8.06,21.68-8.06,11.31-18.8,37-18.39,37-18.39h.09s.09,0,.09,0c0,0,25.69-.41,37,18.39,1.54,0,13.8.18,21.68,8.06,1.4,1.4,7.07,7.46,5.18,15.54-2.4,10.26-14.78,14.34-15.55,14.58-11.81,3.7-22.2-1.02-23.31-1.55-2.55,1.44-6.33,3.25-11.31,4.59-5.56,1.5-10.46,1.84-13.78,1.87Z"/>
  <line class="cls-1" x1="144.11" y1="73.01" x2="143.9" y2="103.77"/>
  <path class="cls-4" d="M131.01,230.77c1.49,10.37-3.09,20.81-10.77,27.72-3.63,3.39-8.47-2.09-4.64-5.27,5.58-3.66,10.03-9.05,11.85-15.57.64-2.16,1.03-4.53,1.04-6.7.02-1.53,2.28-1.69,2.51-.18h0Z"/>
  <path class="cls-5" d="M147.24,232.21l28.82,2.93v-20.92s-.04-.14-.09-.39c-.36-1.38-1.74-6.27-4.5-11.45-3.37-6.27-8.79-12.99-16.96-14.4-16.11-2.76-7.26,44.23-7.26,44.23Z"/>
  <path class="cls-4" d="M130.11,231.68c3.61-1.4,7.67-1.02,11.47-1.12,3.85.07,7.7.27,11.53.57,7.67.57,15.29,1.5,22.91,2.56,10.96-1.67,27.02-3.52,39.79-3.03,1.91.16,3.93.2,5.69,1.02-.91-.3-1.88-.3-2.83-.3-6.68.16-13.3,1.25-19.93,2.07-6.81.95-16.24,2.23-22.94,3.24-6.66-1-16.17-2.29-22.93-3.24-5.68-.74-11.36-1.54-17.08-1.96-1.89-.07-3.84-.33-5.68.19h0Z"/>
  <path class="cls-4" d="M146.11,222.54c-1.34-3.01-2.34-6.09-3.24-9.25-.39-7.98-.84-25.93,9.19-28.23.6-.12,1.36-.03,1.93.08,10.08,1.66,16.52,10.82,20.85,19.23.77,3.25,1.27,6.53,1.23,9.84-1.92-2.67-3.83-5.21-5.81-7.59-3.52-7.26-9.03-15.33-17.52-16.62-5.52,2.67-5.11,16.95-4.96,23.04-.57,3.11-1.01,6.27-1.67,9.5h0Z"/>
  <path class="cls-4" d="M171.47,202.38c2.76,5.18,4.14,10.07,4.5,11.45v-38.29s-3.12,5.11-3.12,5.11l-1.38,21.72Z"/>
  <path class="cls-4" d="M167.08,196.13c-4.13-2.72-6.46-8.41-4.21-13.09.82-1.59,2.53-2.8,4.31-2.71-1.71,2.66-1.48,4.49-1.13,7.29.39,2.8,1.02,5.47,1.02,8.51h0Z"/>
  <path class="cls-4" d="M136.58,201.83c-5.6-1.5-9.28-2.08-14-.78-4.97,1.37-9.98,3.66-15.5,3.73-4.3.27-9.65-2.21-10.67-6.68,2.08.47,3.79.62,5.25.34,1.45-.26,2.66-.76,4.03-1.4,4.32-2.09,10-5.1,15.62-5.38,6.6-.61,13.8,3.83,15.28,10.17h0Z"/>
  <g>
    <circle class="cls-4" cx="243.42" cy="163.73" r="25.31"/>
    <circle class="cls-6" cx="232.33" cy="159.08" r="6.17"/>
  </g>
</svg>