<?xml version="1.0" encoding="UTF-8"?>
<svg id="Web_Icon_2" data-name="Web Icon 2" xmlns="http://www.w3.org/2000/svg" viewBox="0 0 351.18 271.37">
  <defs>
    <style>
      .cls-1 {
        stroke-width: 6px;
      }

      .cls-1, .cls-2 {
        fill: none;
        stroke: #1d1d1b;
        stroke-miterlimit: 10;
      }

      .cls-2 {
        stroke-width: 7px;
      }

      .cls-3 {
        fill: #fffffc;
      }
    </style>
  </defs>
  <path class="cls-3" d="M255.4,213.61l-.65,41.66c-35.47-25.64-73.22-26.47-73.22-26.47v-77.84c.22.03.43.03.65.03,10.85,0,20.83-4.54,28.77-12.15,4.66,3.64,10.2,5.74,16.14,5.74,2.71,0,5.32-.43,7.81-1.27v61.15c11.8,4.91,20.5,9.15,20.5,9.15Z"/>
  <path class="cls-3" d="M304.04,99.35c0,18.25-16.07,33.64-37.91,38.14-4.21.88-8.61,1.34-13.19,1.34-10.03,0-19.37-2.23-27.24-6.08-13.41,8.07-30.26,12.88-48.58,12.88-.37,0-.73,0-1.1-.04V23.4c.37-.04.73-.04,1.1-.04,32.37,0,60.21,15.03,72.43,36.58,1.1-.04,2.24-.07,3.39-.07,28.2,0,51.1,17.69,51.1,39.48Z"/>
  <line class="cls-1" x1="237.61" y1="136.75" x2="238.03" y2="197.88"/>
  <path class="cls-3" d="M95.66,213.61l.65,41.66c35.47-25.64,73.22-26.47,73.22-26.47v-77.84c-.22.03-.43.03-.65.03-10.85,0-20.83-4.54-28.77-12.15-4.66,3.64-10.2,5.74-16.14,5.74-2.71,0-5.32-.43-7.81-1.27v61.15c-11.8,4.91-20.5,9.15-20.5,9.15Z"/>
  <path class="cls-1" d="M175.81,185.01c-27.5-1.59-86.48,24.83-86.48,24.83l.76,44.15c26.55-24.2,85.34-28.07,85.54-28.07,0,0,58.79,3.87,85.34,28.07l.76-44.15s-58.98-26.43-86.48-24.83"/>
  <path class="cls-3" d="M47.64,99.35c0,18.25,16.07,33.64,37.91,38.14,4.21.88,8.61,1.34,13.19,1.34,10.03,0,19.37-2.23,27.24-6.08,13.41,8.07,30.26,12.88,48.58,12.88.37,0,.73,0,1.1-.04V23.4c-.37-.04-.73-.04-1.1-.04-32.37,0-60.21,15.03-72.43,36.58-1.1-.04-2.24-.07-3.39-.07-28.2,0-51.1,17.69-51.1,39.48Z"/>
  <path class="cls-2" d="M175.83,145.59c-6.6-.06-16.34-.74-27.37-3.72-9.9-2.67-17.42-6.27-22.48-9.13-2.21,1.04-22.87,10.43-46.33,3.08-1.53-.48-26.14-8.58-30.91-28.97-3.75-16.06,7.52-28.1,10.3-30.88,15.65-15.67,40.02-16.02,43.08-16.03,22.48-37.36,73.53-36.54,73.53-36.54h.18c.09,0,.18,0,.18,0,0,0,51.05-.81,73.53,36.54,3.06,0,27.43.36,43.08,16.03,2.78,2.79,14.05,14.83,10.3,30.88-4.76,20.4-29.37,28.49-30.91,28.97-23.46,7.35-44.13-2.03-46.33-3.08-5.06,2.86-12.58,6.46-22.48,9.13-11.04,2.98-20.78,3.65-27.39,3.72Z"/>
  <line class="cls-1" x1="113.45" y1="136.75" x2="113.03" y2="197.88"/>
  <line class="cls-1" x1="175.52" y1="143.95" x2="175.52" y2="186.43"/>
  <line class="cls-1" x1="138.68" y1="190.76" x2="139.16" y2="141.08"/>
  <line class="cls-1" x1="212.75" y1="191.48" x2="211.89" y2="140.13"/>
</svg>